<?xml version="1.0" encoding="utf-8"?>
<!-- Generator: Adobe Illustrator 16.0.0, SVG Export Plug-In . SVG Version: 6.00 Build 0)  -->
<!DOCTYPE svg PUBLIC "-//W3C//DTD SVG 1.1//EN" "http://www.w3.org/Graphics/SVG/1.1/DTD/svg11.dtd">
<svg version="1.1" id="Ebene_1" xmlns="http://www.w3.org/2000/svg" xmlns:xlink="http://www.w3.org/1999/xlink" x="0px" y="0px"
	 width="500px" height="500px" viewBox="0 0 500 500" enable-background="new 0 0 500 500" xml:space="preserve">
<g>
	<path fill="#808080" d="M370,363c0,6.627-5.373,12-12,12H142c-6.627,0-12-5.373-12-12V138c0-6.627,5.373-12,12-12h216
		c6.627,0,12,5.373,12,12V363z"/>
	<path fill="#CCCCCC" d="M329,217H171v116h0.069c-0.031,0-0.069,0.082-0.069,0.25c0,8.008,35.37,14.375,79,14.375
		c43.631,0,79-6.305,79-14.313c0-0.168-0.038-0.313-0.068-0.313H329V217z"/>
	<rect x="130" y="148" fill="#CCCCCC" width="240" height="46"/>
</g>
</svg>
