<?xml version="1.0" encoding="utf-8"?>
<!-- Generator: Adobe Illustrator 16.0.0, SVG Export Plug-In . SVG Version: 6.00 Build 0)  -->
<!DOCTYPE svg PUBLIC "-//W3C//DTD SVG 1.1//EN" "http://www.w3.org/Graphics/SVG/1.1/DTD/svg11.dtd">
<svg version="1.1" id="Ebene_1" xmlns="http://www.w3.org/2000/svg" xmlns:xlink="http://www.w3.org/1999/xlink" x="0px" y="0px"
	 width="500px" height="500px" viewBox="0 0 500 500" enable-background="new 0 0 500 500" xml:space="preserve">
<g>
	<path fill="#CCCCCC" d="M270.014,216.75c-23.328-14.666,12.732-43.625,12.732-57.625c0-10.133-14.006-19.696-21.746-24.231V117
		h-0.037c0.019,0,0.037-0.027,0.037-0.083c0-1.196-4.254-2.125-9.5-2.125c-5.247,0-9.5,0.908-9.5,2.104
		c0,0.057,0.019,0.104,0.037,0.104H242v16.734c-7.037,3.856-24.048,14.326-24.048,25.433c0,14,35.758,42.917,12.43,57.583
		C207.054,231.417,209.466,274,209.466,274H209v106h0.036c-0.016,0-0.036,0.193-0.036,0.25c0,2.67,18.356,4.875,41,4.875
		s41-2.227,41-4.896c0-0.056-0.02-0.229-0.035-0.229H291V274h-0.07C290.93,274,293.341,231.417,270.014,216.75z"/>
	<rect x="209" y="279" fill="#808080" width="82" height="63"/>
</g>
</svg>
