<?xml version="1.0" encoding="utf-8"?>
<!-- Generator: Adobe Illustrator 16.0.0, SVG Export Plug-In . SVG Version: 6.00 Build 0)  -->
<!DOCTYPE svg PUBLIC "-//W3C//DTD SVG 1.1//EN" "http://www.w3.org/Graphics/SVG/1.1/DTD/svg11.dtd">
<svg version="1.1" id="Ebene_1" xmlns="http://www.w3.org/2000/svg" xmlns:xlink="http://www.w3.org/1999/xlink" x="0px" y="0px"
	 width="500px" height="500px" viewBox="0 0 500 500" enable-background="new 0 0 500 500" xml:space="preserve">
<g>
</g>
<g>
	<path fill="#CCCCCC" d="M313.334,214c0-18.766-9.334-35.256-23.334-44.762v-6.304c0-0.416,0.167-0.838,0.167-1.268
		c0-5.523-18.14-10-40.417-10c-22.275,0-40.208,4.477-40.208,10c0,0.429-0.542,0.851,0.458,1.266v6.746
		c-14,9.571-23,25.848-23,44.321v120.181c-1,0.434-0.5,0.874-0.5,1.319c0,7.088,28.421,12.833,63.584,12.833
		c34.329,0,62.215-5.478,63.52-12.333H314V214H313.334z"/>
	<g>
		<path fill="#808080" d="M250.5,257c-35.07,0-63.5-4.253-63.5-9.5V300h-0.245c-0.058,0.166-0.088,0.332-0.088,0.5
			c0,5.246,28.43,9.5,63.5,9.5c35.07,0,63.5-4.254,63.5-9.5c0-0.168-0.031-0.334-0.088-0.5H314v-52.5
			C314,252.747,285.57,257,250.5,257z"/>
		<path fill="#808080" d="M186.667,247v0.5c0-0.168,0.031-0.334,0.088-0.5H186.667z"/>
		<path fill="#808080" d="M313.578,247c0.057,0.166,0.088,0.332,0.088,0.5V247H313.578z"/>
	</g>
</g>
</svg>
