<?xml version="1.0" encoding="utf-8"?>
<!-- Generator: Adobe Illustrator 16.0.0, SVG Export Plug-In . SVG Version: 6.00 Build 0)  -->
<!DOCTYPE svg PUBLIC "-//W3C//DTD SVG 1.1//EN" "http://www.w3.org/Graphics/SVG/1.1/DTD/svg11.dtd">
<svg version="1.1" id="Ebene_1" xmlns="http://www.w3.org/2000/svg" xmlns:xlink="http://www.w3.org/1999/xlink" x="0px" y="0px"
	 width="500px" height="500px" viewBox="0 0 500 500" enable-background="new 0 0 500 500" xml:space="preserve">
<g>
	<path fill="#B3B3B3" d="M370,418.985V105H146v313.364c-0.263,1.034-0.405,2.079-0.405,3.136c0,20.438,50.294,37.005,112.335,37.005
		c62.04,0,112.334-16.567,112.334-37.005C370.264,420.654,370.17,419.816,370,418.985z"/>
	<ellipse fill="#4D4D4D" cx="257.929" cy="104.5" rx="112.334" ry="37.004"/>
	<path fill="#4D4D4D" d="M370,324.985v-129.97c-3.926,19.264-52.597,34.489-112.07,34.489c-58.834,0-107.097-14.9-111.93-33.869
		v128.729c-0.263,1.034-0.405,2.079-0.405,3.136c0,20.438,50.294,37.005,112.335,37.005c62.04,0,112.334-16.567,112.334-37.005
		C370.264,326.654,370.17,325.816,370,324.985z"/>
</g>
</svg>
