<?xml version="1.0" encoding="utf-8"?>
<!-- Generator: Adobe Illustrator 16.0.0, SVG Export Plug-In . SVG Version: 6.00 Build 0)  -->
<!DOCTYPE svg PUBLIC "-//W3C//DTD SVG 1.1//EN" "http://www.w3.org/Graphics/SVG/1.1/DTD/svg11.dtd">
<svg version="1.1" id="Ebene_1" xmlns="http://www.w3.org/2000/svg" xmlns:xlink="http://www.w3.org/1999/xlink" x="0px" y="0px"
	 width="500px" height="500px" viewBox="0 0 500 500" enable-background="new 0 0 500 500" xml:space="preserve">
<g>
	<path fill="#B3B3B3" d="M362,336.744V162H138v174.398c-0.263,0.575-0.405,1.156-0.405,1.744c0,11.365,50.294,20.578,112.335,20.578
		c62.04,0,112.334-9.213,112.334-20.578C362.264,337.672,362.17,337.206,362,336.744z"/>
	<ellipse fill="#4D4D4D" cx="249.929" cy="161.858" rx="112.334" ry="20.578"/>
	<path fill="#4D4D4D" d="M362,284.47v-72.276c-3.926,10.713-52.597,19.18-112.07,19.18c-58.834,0-107.097-8.286-111.93-18.835
		v71.587c-0.263,0.575-0.405,1.156-0.405,1.743c0,11.366,50.294,20.579,112.335,20.579c62.04,0,112.334-9.213,112.334-20.579
		C362.264,285.398,362.17,284.933,362,284.47z"/>
</g>
</svg>
