<?xml version="1.0" encoding="utf-8"?>
<!-- Generator: Adobe Illustrator 16.0.0, SVG Export Plug-In . SVG Version: 6.00 Build 0)  -->
<!DOCTYPE svg PUBLIC "-//W3C//DTD SVG 1.1//EN" "http://www.w3.org/Graphics/SVG/1.1/DTD/svg11.dtd">
<svg version="1.1" id="Ebene_1" xmlns="http://www.w3.org/2000/svg" xmlns:xlink="http://www.w3.org/1999/xlink" x="0px" y="0px"
	 width="500px" height="500px" viewBox="0 0 500 500" enable-background="new 0 0 500 500" xml:space="preserve">
<g>
	<path fill="#CCCCCC" d="M265,139.861V123h-83v47.772c-20.275,22.648-33,55.282-33,91.561c0,68.392,45.219,123.834,101,123.834
		c55.781,0,101-55.442,101-123.834C351,200.192,313.667,148.746,265,139.861z M314,296.5c15.666-45-57-18.667-36.333-92.333
		S330,241.5,330,241.5C349.666,312.5,298.334,341.5,314,296.5z"/>
	<path fill="#808080" d="M265,125.5c0,3.682-5.373,6.5-12,6.5h-59c-6.627,0-12-2.818-12-6.5v-5c0-3.682,5.373-6.5,12-6.5h59
		c6.627,0,12,2.818,12,6.5V125.5z"/>
	<path fill="#808080" d="M305.951,268.521C292.267,259.252,270.248,254,274.469,220h-0.002c0,0-63.521,62-124.494,60
		c-0.029,0-0.054,0-0.083,0c3.282,29,14.721,54.598,31.402,73.541c0.453,0.377,0.708,0.551,0.708,0.551
		S311.901,314.928,305.951,268.521z"/>
</g>
</svg>
